<svg width="53" height="53" viewBox="0 0 53 53" fill="none" xmlns="http://www.w3.org/2000/svg">
<path d="M31.2126 15.4407L38.7121 7.939C39.5564 7.10842 40.6946 6.6451 41.879 6.64994C43.0633 6.65478 44.1977 7.1274 45.0352 7.96486C45.8726 8.80231 46.3453 9.93675 46.3501 11.1211C46.3549 12.3054 45.8916 13.4437 45.061 14.288L37.5593 21.7875L41.6183 41.9827C42.1372 44.5664 37.1265 48.166 35.7927 44.7431L29.8522 29.4967L22.1385 37.2105C22.514 41.7177 22.5957 43.2171 19.4355 46.375L14.6324 38.3676L6.625 33.5645C9.78292 30.4044 11.2824 30.4839 15.7896 30.8615L23.5033 23.15L8.25696 17.2074C4.83404 15.8735 8.43362 10.8606 11.0174 11.3818L31.2126 15.4407Z" stroke="currentColor" stroke-width="3.5" stroke-linecap="round" stroke-linejoin="round"/>
</svg>
