<svg width="53" height="53" viewBox="0 0 53 53" fill="none" xmlns="http://www.w3.org/2000/svg">
<path d="M8.28125 25.9479C8.28125 24.7765 8.74658 23.6531 9.57486 22.8249C10.4031 21.9966 11.5265 21.5312 12.6979 21.5312H40.3021C41.4735 21.5312 42.5969 21.9966 43.4251 22.8249C44.2534 23.6531 44.7187 24.7765 44.7187 25.9479V39.1979H8.28125V25.9479Z" stroke="currentColor" stroke-width="3.5" stroke-linecap="round" stroke-linejoin="round"/>
<path d="M15.4583 30.9167C16.678 30.9167 17.6667 29.928 17.6667 28.7083C17.6667 27.4887 16.678 26.5 15.4583 26.5C14.2387 26.5 13.25 27.4887 13.25 28.7083C13.25 29.928 14.2387 30.9167 15.4583 30.9167Z" fill="currentColor"/>
<path d="M37.5413 30.9167C38.761 30.9167 39.7497 29.928 39.7497 28.7083C39.7497 27.4887 38.761 26.5 37.5413 26.5C36.3217 26.5 35.333 27.4887 35.333 28.7083C35.333 29.928 36.3217 30.9167 37.5413 30.9167Z" fill="currentColor"/>
<path d="M22.0833 32.5728H30.9167M13.8485 12.2936C14.1582 11.4413 14.7227 10.7049 15.4655 10.1846C16.2083 9.66422 17.0932 9.38515 18.0001 9.38525H34.9999C35.9068 9.38515 36.7917 9.66422 37.5345 10.1846C38.2772 10.7049 38.8418 11.4413 39.1515 12.2936L42.5104 21.5311H10.4896L13.8485 12.2936ZM8.28125 39.1978H15.8735V42.9519C15.8735 43.7133 15.571 44.4435 15.0327 44.9819C14.4943 45.5203 13.7641 45.8228 13.0027 45.8228H11.1521C10.3907 45.8228 9.66048 45.5203 9.1221 44.9819C8.58371 44.4435 8.28125 43.7133 8.28125 42.9519V39.1978ZM37.1287 39.1978H44.7187V42.9519C44.7187 43.7133 44.4163 44.4435 43.8779 44.9819C43.3395 45.5203 42.6093 45.8228 41.8479 45.8228H39.9995C39.2382 45.8228 38.5079 45.5203 37.9696 44.9819C37.4312 44.4435 37.1287 43.7133 37.1287 42.9519V39.1978Z" stroke="currentColor" stroke-width="3.5" stroke-linecap="round" stroke-linejoin="round"/>
</svg>
