<?xml version="1.0" encoding="iso-8859-1"?>
<svg version="1.1" id="Layer_1" xmlns="http://www.w3.org/2000/svg" xmlns:xlink="http://www.w3.org/1999/xlink" x="0px" y="0px"
	 viewBox="0 0 500 500" style="enable-background:new 0 0 500 500;" xml:space="preserve">
<g>
	<path style="fill:#0BA4DB;" d="M451.624,146.952H48.376C35.52,146.952,25,157.491,25,170.37v42.157
		c0,12.883,10.52,23.423,23.376,23.423h403.247c12.857,0,23.376-10.539,23.376-23.423V170.37
		C475,157.491,464.48,146.952,451.624,146.952z M262.275,382.326H48.376C35.52,382.326,25,392.866,25,405.744v42.157
		c0,12.883,10.52,23.423,23.376,23.423h213.898c12.856,0,23.375-10.539,23.375-23.423v-42.157
		C285.65,392.866,275.13,382.326,262.275,382.326z M428.247,264.051H48.376C35.52,264.051,25,274.59,25,287.474v42.157
		c0,12.878,10.52,23.418,23.376,23.418h378.703c12.856,0,23.376-10.539,23.376-23.418v-42.157
		C451.624,274.59,441.104,264.051,428.247,264.051z M428.247,28.676H48.376C35.52,28.676,25,39.216,25,52.099v42.157
		c0,12.878,10.52,23.418,23.376,23.418h378.703c12.856,0,23.376-10.539,23.376-23.418V52.099
		C451.624,39.216,441.104,28.676,428.247,28.676z"/>
</g>
</svg>
