<svg width="53" height="53" viewBox="0 0 53 53" fill="none" xmlns="http://www.w3.org/2000/svg">
<path d="M7.72877 38.6457L4.41406 35.3332V26.4998H48.5874V35.3332L45.2704 38.6457M4.41627 43.0623C4.41627 44.5266 4.99793 45.9308 6.03329 46.9662C7.06864 48.0015 8.47289 48.5832 9.9371 48.5832C11.4013 48.5832 12.8056 48.0015 13.8409 46.9662C14.8763 45.9308 15.4579 44.5266 15.4579 43.0623C15.4579 44.5266 16.0396 45.9308 17.075 46.9662C18.1103 48.0015 19.5146 48.5832 20.9788 48.5832C22.443 48.5832 23.8472 48.0015 24.8826 46.9662C25.9179 45.9308 26.4996 44.5266 26.4996 43.0623C26.4996 44.5266 27.0813 45.9308 28.1166 46.9662C29.152 48.0015 30.5562 48.5832 32.0204 48.5832C33.4847 48.5832 34.8889 48.0015 35.9243 46.9662C36.9596 45.9308 37.5413 44.5266 37.5413 43.0623C37.5413 44.5266 38.1229 45.9308 39.1583 46.9662C40.1936 48.0015 41.5979 48.5832 43.0621 48.5832C44.5263 48.5832 45.9306 48.0015 46.9659 46.9662C48.0013 45.9308 48.5829 44.5266 48.5829 43.0623M41.9579 26.4998H11.0413L13.2496 13.2498H39.7496L41.9579 26.4998ZM30.9163 4.4165H22.0829V13.2498H30.9163V4.4165Z" stroke="currentColor" stroke-width="3.5"/>
</svg>
