<svg width="120" height="120" viewBox="0 0 120 120" fill="none" xmlns="http://www.w3.org/2000/svg">
<circle cx="60" cy="60" r="60" fill="#FFCACA" fill-opacity="0.21"/>
<circle cx="60" cy="60" r="50" fill="#FFCACA" fill-opacity="0.21"/>
<circle cx="60" cy="60" r="40" fill="#FFCACA" fill-opacity="0.21"/>
<path fill-rule="evenodd" clip-rule="evenodd" d="M41.6081 52.7066C41.0478 57.9124 41.0727 63.9164 41.8524 69.101C42.2838 71.9698 44.6251 74.1691 47.5153 74.4203L50.5357 74.6829C56.8338 75.2304 63.1676 75.2304 69.4656 74.6829L72.4861 74.4203C75.3762 74.1691 77.7176 71.9698 78.149 69.101C78.9286 63.9163 78.9536 57.9127 78.3934 52.7069C78.3209 52.1034 78.2395 51.5007 78.149 50.899C77.7176 48.0302 75.3762 45.8309 72.4861 45.5797L69.4656 45.3171C63.1675 44.7696 56.8338 44.7696 50.5357 45.3171L47.5153 45.5797C44.6251 45.8309 42.2838 48.0302 41.8524 50.899C41.7619 51.5006 41.6805 52.1032 41.6081 52.7066ZM50.7955 48.3058C56.9208 47.7734 63.0806 47.7734 69.2058 48.3058L72.2263 48.5684C73.735 48.6995 74.9571 49.8476 75.1823 51.3451C75.2057 51.5006 75.2285 51.6562 75.2506 51.8118L64.1286 57.9907C61.5614 59.417 58.4398 59.417 55.8726 57.9907L44.7508 51.8119C44.7729 51.6562 44.7957 51.5006 44.819 51.3451C45.0442 49.8476 46.2664 48.6995 47.7751 48.5684L50.7955 48.3058ZM75.6177 55.0398C76.0056 59.5753 75.8605 64.145 75.1823 68.6549C74.9571 70.1524 73.735 71.3004 72.2263 71.4316L69.2058 71.6942C63.0806 72.2266 56.9208 72.2266 50.7955 71.6942L47.7751 71.4316C46.2664 71.3004 45.0442 70.1524 44.819 68.6549C44.1409 64.145 43.9957 59.5753 44.3837 55.0398L54.4157 60.6132C57.889 62.5428 62.1123 62.5428 65.5855 60.6132L75.6177 55.0398Z" fill="#E75B3B"/>
</svg>
