<svg width="37" height="32" viewBox="0 0 37 32" fill="none" xmlns="http://www.w3.org/2000/svg">
<path d="M30.375 26.6666H6.625C5.52043 26.6666 4.625 25.7712 4.625 24.6666V11.3333C4.625 10.2287 5.52043 9.33325 6.625 9.33325H30.375C31.4796 9.33325 32.375 10.2287 32.375 11.3333V24.6666C32.375 25.7712 31.4796 26.6666 30.375 26.6666Z" fill="#E75B3B" stroke="#A4412A" stroke-width="1.5"/>
<path d="M25.4382 18.6666C25.0124 18.6666 24.6673 18.3681 24.6673 17.9999C24.6673 17.6317 25.0124 17.3333 25.4382 17.3333C25.8639 17.3333 26.209 17.6317 26.209 17.9999C26.209 18.3681 25.8639 18.6666 25.4382 18.6666Z" fill="#E75B3B" stroke="white" stroke-width="1.5" stroke-linecap="round" stroke-linejoin="round"/>
<path d="M27.75 9.33333V6.51376C27.75 5.2277 26.5537 4.2759 25.3005 4.56492L6.17554 8.97573C5.26795 9.18505 4.625 9.99316 4.625 10.9246V12" stroke="#A4412A" stroke-width="1.5"/>
</svg>
